<?xml version="1.0" encoding="UTF-8"?>
<svg xmlns="http://www.w3.org/2000/svg" version="1.1" width="300" height="300" viewBox="0 0 300 300"><rect x="0" y="0" width="300" height="300" fill="#ffffff"/><g transform="scale(10.345)"><g transform="translate(0,0)"><path fill-rule="evenodd" d="M8 0L8 1L11 1L11 3L10 3L10 2L9 2L9 3L10 3L10 5L9 5L9 6L8 6L8 8L9 8L9 9L10 9L10 10L8 10L8 9L7 9L7 8L6 8L6 9L7 9L7 10L5 10L5 8L3 8L3 9L2 9L2 8L0 8L0 11L1 11L1 10L2 10L2 12L4 12L4 11L3 11L3 9L4 9L4 10L5 10L5 13L7 13L7 12L9 12L9 13L8 13L8 14L4 14L4 13L0 13L0 14L1 14L1 15L0 15L0 16L1 16L1 15L2 15L2 14L3 14L3 15L5 15L5 18L6 18L6 19L7 19L7 18L9 18L9 16L10 16L10 18L12 18L12 19L10 19L10 20L9 20L9 19L8 19L8 20L5 20L5 19L4 19L4 16L3 16L3 18L1 18L1 17L0 17L0 21L4 21L4 20L5 20L5 21L8 21L8 22L10 22L10 24L8 24L8 26L9 26L9 27L8 27L8 29L9 29L9 27L10 27L10 28L12 28L12 29L13 29L13 28L12 28L12 27L13 27L13 26L14 26L14 25L15 25L15 28L14 28L14 29L15 29L15 28L16 28L16 27L17 27L17 25L16 25L16 24L15 24L15 23L16 23L16 21L18 21L18 20L19 20L19 19L20 19L20 22L19 22L19 23L17 23L17 24L19 24L19 25L18 25L18 26L19 26L19 25L21 25L21 26L20 26L20 27L21 27L21 28L20 28L20 29L22 29L22 28L24 28L24 27L25 27L25 28L27 28L27 27L28 27L28 28L29 28L29 25L28 25L28 23L27 23L27 25L28 25L28 26L27 26L27 27L26 27L26 26L23 26L23 27L21 27L21 26L22 26L22 25L26 25L26 21L28 21L28 20L27 20L27 19L24 19L24 20L23 20L23 18L22 18L22 17L21 17L21 16L22 16L22 15L21 15L21 14L19 14L19 13L20 13L20 12L21 12L21 11L22 11L22 14L23 14L23 15L24 15L24 16L23 16L23 17L24 17L24 18L28 18L28 19L29 19L29 18L28 18L28 17L24 17L24 16L25 16L25 15L26 15L26 16L27 16L27 14L28 14L28 16L29 16L29 11L28 11L28 13L27 13L27 14L26 14L26 13L24 13L24 12L23 12L23 11L25 11L25 9L23 9L23 8L22 8L22 9L23 9L23 10L20 10L20 8L21 8L21 5L20 5L20 4L21 4L21 3L20 3L20 2L21 2L21 1L19 1L19 0L17 0L17 1L19 1L19 4L18 4L18 3L17 3L17 2L13 2L13 1L12 1L12 0ZM14 0L14 1L15 1L15 0ZM12 2L12 4L13 4L13 5L12 5L12 6L11 6L11 5L10 5L10 6L9 6L9 7L10 7L10 9L11 9L11 10L10 10L10 11L9 11L9 12L11 12L11 14L10 14L10 13L9 13L9 15L11 15L11 16L12 16L12 15L13 15L13 16L14 16L14 15L13 15L13 14L14 14L14 13L19 13L19 12L20 12L20 10L19 10L19 8L20 8L20 5L18 5L18 4L17 4L17 5L16 5L16 4L15 4L15 3L14 3L14 4L13 4L13 2ZM14 5L14 7L13 7L13 6L12 6L12 9L13 9L13 8L14 8L14 10L15 10L15 11L14 11L14 12L15 12L15 11L16 11L16 12L18 12L18 11L17 11L17 10L18 10L18 9L17 9L17 6L16 6L16 7L15 7L15 5ZM10 6L10 7L11 7L11 6ZM18 6L18 8L19 8L19 6ZM15 8L15 9L16 9L16 8ZM28 8L28 9L26 9L26 11L27 11L27 10L28 10L28 9L29 9L29 8ZM12 10L12 11L13 11L13 10ZM6 11L6 12L7 12L7 11ZM12 13L12 14L13 14L13 13ZM17 14L17 17L16 17L16 19L17 19L17 20L18 20L18 19L19 19L19 18L18 18L18 17L19 17L19 16L20 16L20 15L18 15L18 14ZM6 15L6 16L7 16L7 17L6 17L6 18L7 18L7 17L8 17L8 15ZM12 17L12 18L13 18L13 19L12 19L12 21L11 21L11 20L10 20L10 22L12 22L12 23L13 23L13 25L10 25L10 27L11 27L11 26L13 26L13 25L14 25L14 23L13 23L13 22L15 22L15 21L16 21L16 20L15 20L15 17L14 17L14 18L13 18L13 17ZM20 18L20 19L21 19L21 18ZM2 19L2 20L4 20L4 19ZM13 19L13 20L14 20L14 19ZM8 20L8 21L9 21L9 20ZM12 21L12 22L13 22L13 21ZM21 21L21 24L24 24L24 21ZM22 22L22 23L23 23L23 22ZM0 0L0 7L7 7L7 0ZM1 1L1 6L6 6L6 1ZM2 2L2 5L5 5L5 2ZM22 0L22 7L29 7L29 0ZM23 1L23 6L28 6L28 1ZM24 2L24 5L27 5L27 2ZM0 22L0 29L7 29L7 22ZM1 23L1 28L6 28L6 23ZM2 24L2 27L5 27L5 24Z" fill="#000000"/></g></g></svg>
