<?xml version="1.0" encoding="UTF-8"?>
<svg xmlns="http://www.w3.org/2000/svg" version="1.1" width="300" height="300" viewBox="0 0 300 300"><rect x="0" y="0" width="300" height="300" fill="#ffffff"/><g transform="scale(10.345)"><g transform="translate(0,0)"><path fill-rule="evenodd" d="M8 0L8 1L10 1L10 0ZM13 0L13 2L11 2L11 4L10 4L10 3L9 3L9 2L8 2L8 5L9 5L9 6L8 6L8 7L9 7L9 8L8 8L8 9L7 9L7 8L6 8L6 9L7 9L7 10L3 10L3 9L4 9L4 8L0 8L0 9L1 9L1 10L0 10L0 14L3 14L3 13L4 13L4 11L5 11L5 12L6 12L6 13L10 13L10 14L8 14L8 15L7 15L7 14L4 14L4 15L7 15L7 16L5 16L5 17L3 17L3 15L1 15L1 16L2 16L2 17L1 17L1 18L0 18L0 19L1 19L1 18L2 18L2 17L3 17L3 18L4 18L4 19L8 19L8 18L9 18L9 19L10 19L10 16L11 16L11 17L12 17L12 18L11 18L11 19L12 19L12 20L11 20L11 21L10 21L10 20L5 20L5 21L8 21L8 22L9 22L9 24L11 24L11 23L13 23L13 24L12 24L12 25L11 25L11 28L12 28L12 26L13 26L13 25L14 25L14 24L15 24L15 26L16 26L16 28L14 28L14 29L16 29L16 28L17 28L17 26L18 26L18 27L19 27L19 26L20 26L20 29L21 29L21 27L22 27L22 25L23 25L23 28L24 28L24 29L25 29L25 28L26 28L26 25L28 25L28 27L27 27L27 29L28 29L28 27L29 27L29 24L28 24L28 22L29 22L29 21L27 21L27 18L28 18L28 15L29 15L29 13L27 13L27 12L26 12L26 11L28 11L28 12L29 12L29 11L28 11L28 10L29 10L29 8L28 8L28 10L26 10L26 11L24 11L24 10L25 10L25 9L27 9L27 8L24 8L24 9L22 9L22 8L21 8L21 5L20 5L20 2L21 2L21 0L18 0L18 1L17 1L17 0L16 0L16 1L17 1L17 2L16 2L16 3L17 3L17 4L15 4L15 2L14 2L14 0ZM19 1L19 2L20 2L20 1ZM17 2L17 3L18 3L18 4L17 4L17 5L15 5L15 4L13 4L13 3L12 3L12 5L10 5L10 6L9 6L9 7L10 7L10 8L9 8L9 9L10 9L10 10L8 10L8 12L10 12L10 13L11 13L11 11L15 11L15 13L16 13L16 10L17 10L17 12L18 12L18 13L17 13L17 15L16 15L16 14L15 14L15 15L13 15L13 16L12 16L12 14L13 14L13 12L12 12L12 14L11 14L11 16L12 16L12 17L13 17L13 18L15 18L15 17L16 17L16 18L17 18L17 17L18 17L18 20L19 20L19 21L17 21L17 22L16 22L16 21L15 21L15 19L13 19L13 22L14 22L14 21L15 21L15 24L18 24L18 26L19 26L19 25L20 25L20 26L21 26L21 25L20 25L20 23L18 23L18 22L20 22L20 20L19 20L19 19L20 19L20 17L18 17L18 16L22 16L22 19L23 19L23 16L24 16L24 15L25 15L25 17L24 17L24 20L26 20L26 19L25 19L25 18L26 18L26 17L27 17L27 15L25 15L25 14L27 14L27 13L25 13L25 12L22 12L22 10L21 10L21 13L20 13L20 12L18 12L18 10L19 10L19 11L20 11L20 10L19 10L19 9L18 9L18 8L19 8L19 7L20 7L20 6L19 6L19 7L18 7L18 6L17 6L17 5L19 5L19 3L18 3L18 2ZM12 5L12 7L11 7L11 6L10 6L10 7L11 7L11 8L12 8L12 7L13 7L13 6L14 6L14 9L17 9L17 10L18 10L18 9L17 9L17 8L18 8L18 7L17 7L17 6L16 6L16 7L15 7L15 5ZM20 8L20 9L21 9L21 8ZM2 11L2 12L3 12L3 11ZM6 11L6 12L7 12L7 11ZM19 13L19 15L22 15L22 16L23 16L23 15L24 15L24 14L23 14L23 13L22 13L22 14L20 14L20 13ZM22 14L22 15L23 15L23 14ZM8 15L8 17L9 17L9 16L10 16L10 15ZM13 16L13 17L15 17L15 16ZM16 16L16 17L17 17L17 16ZM6 17L6 18L7 18L7 17ZM1 20L1 21L2 21L2 20ZM3 20L3 21L4 21L4 20ZM9 21L9 22L10 22L10 23L11 23L11 22L12 22L12 21L11 21L11 22L10 22L10 21ZM21 21L21 24L24 24L24 21ZM22 22L22 23L23 23L23 22ZM26 22L26 23L25 23L25 25L26 25L26 24L27 24L27 22ZM8 25L8 29L10 29L10 28L9 28L9 25ZM24 26L24 28L25 28L25 26ZM18 28L18 29L19 29L19 28ZM0 0L0 7L7 7L7 0ZM1 1L1 6L6 6L6 1ZM2 2L2 5L5 5L5 2ZM22 0L22 7L29 7L29 0ZM23 1L23 6L28 6L28 1ZM24 2L24 5L27 5L27 2ZM0 22L0 29L7 29L7 22ZM1 23L1 28L6 28L6 23ZM2 24L2 27L5 27L5 24Z" fill="#000000"/></g></g></svg>
